<?xml version="1.0" standalone="no"?>
<!DOCTYPE svg PUBLIC "-//W3C//DTD SVG 20010904//EN"
 "http://www.w3.org/TR/2001/REC-SVG-20010904/DTD/svg10.dtd">
<svg version="1.0" xmlns="http://www.w3.org/2000/svg"
 width="2321.000000pt" height="2321.000000pt" viewBox="0 0 2321.000000 2321.000000"
 preserveAspectRatio="xMidYMid meet">
<metadata>
Created by potrace 1.11, written by Peter Selinger 2001-2013
</metadata>
<g transform="translate(0.000000,2321.000000) scale(0.100000,-0.100000)"
fill="#000000" stroke="none">
<path d="M10947 23184 c-1 -1 -43 -5 -94 -8 -50 -4 -102 -9 -115 -11 -13 -2
-50 -6 -83 -10 -33 -3 -78 -9 -100 -11 -22 -3 -56 -7 -75 -9 -51 -5 -121 -14
-150 -20 -14 -2 -45 -7 -70 -10 -25 -3 -70 -10 -100 -15 -30 -5 -72 -12 -94
-16 -21 -3 -48 -8 -60 -10 -11 -2 -48 -9 -81 -15 -33 -6 -91 -17 -130 -24 -38
-8 -81 -16 -95 -19 -83 -16 -132 -26 -138 -30 -4 -2 -24 -7 -45 -10 -111 -18
-551 -134 -817 -216 -341 -105 -828 -286 -1075 -400 -73 -34 -116 -53 -125
-54 -11 -3 -136 -64 -350 -170 -304 -152 -610 -324 -860 -484 -75 -48 -366
-242 -400 -267 -15 -11 -40 -29 -56 -40 -131 -89 -600 -455 -634 -494 -3 -3
-34 -31 -70 -61 -143 -120 -266 -235 -501 -470 -379 -379 -644 -688 -946
-1105 -70 -98 -251 -362 -278 -406 -5 -10 -62 -104 -126 -211 -64 -106 -131
-219 -148 -250 -17 -32 -44 -82 -60 -110 -152 -278 -376 -775 -488 -1083 -34
-94 -133 -393 -144 -430 -4 -16 -20 -70 -34 -120 -25 -84 -73 -261 -80 -295
-2 -8 -10 -42 -19 -75 -18 -73 -65 -287 -72 -335 -3 -19 -9 -53 -14 -75 -5
-22 -11 -53 -14 -70 -37 -223 -45 -272 -52 -335 -2 -25 -7 -56 -9 -70 -2 -14
-7 -52 -11 -85 -3 -33 -7 -72 -9 -88 -2 -15 -7 -62 -10 -105 -4 -42 -9 -93
-11 -112 -26 -253 -25 -1039 1 -1300 3 -25 7 -72 10 -105 15 -155 25 -247 31
-290 3 -22 7 -51 9 -65 3 -25 13 -90 21 -145 3 -16 9 -56 14 -87 6 -32 12 -68
14 -80 2 -13 11 -63 21 -113 9 -49 19 -101 22 -115 16 -89 90 -397 120 -500
13 -47 26 -92 28 -100 2 -8 22 -76 45 -150 22 -74 42 -142 45 -150 27 -104
214 -591 286 -748 16 -35 29 -65 29 -67 0 -22 280 -579 347 -690 7 -11 15 -27
19 -35 41 -84 316 -522 444 -705 96 -136 313 -423 402 -530 200 -240 231 -275
427 -484 162 -173 379 -386 550 -540 41 -36 79 -71 85 -76 6 -6 40 -35 76 -65
36 -30 67 -57 70 -60 18 -19 288 -234 400 -318 74 -56 140 -105 145 -110 6 -4
48 -35 95 -67 47 -33 87 -63 88 -67 2 -5 8 -8 14 -8 6 0 25 -11 42 -23 55 -42
136 -97 141 -97 3 0 11 -5 18 -10 7 -6 35 -25 62 -42 28 -18 73 -46 100 -64
71 -45 273 -167 342 -205 32 -18 74 -41 93 -52 150 -85 225 -124 445 -232 550
-271 958 -431 1650 -645 62 -19 324 -89 430 -115 61 -14 144 -35 185 -45 41
-10 91 -21 110 -24 19 -3 64 -12 100 -20 36 -8 81 -18 100 -21 19 -3 42 -8 50
-10 20 -5 292 -52 350 -60 25 -3 70 -10 100 -15 30 -5 78 -12 105 -15 28 -3
61 -8 75 -10 14 -2 52 -7 85 -10 33 -3 71 -8 85 -10 14 -2 54 -7 90 -10 36 -3
81 -8 100 -10 19 -3 64 -7 100 -10 36 -2 106 -7 155 -11 475 -34 1124 -34
1525 1 36 3 92 8 125 10 135 11 265 23 315 30 14 2 50 6 80 10 67 7 192 24
240 32 19 3 44 7 55 8 57 6 318 51 445 76 80 16 156 32 170 34 47 9 65 13 175
39 61 15 119 28 130 30 11 2 49 12 85 21 36 9 72 18 80 20 106 24 520 148 685
205 50 17 97 33 105 35 55 12 557 208 705 274 22 10 94 42 160 71 123 55 680
333 700 350 7 6 38 24 71 41 46 25 295 173 439 262 212 131 611 413 825 584
173 138 344 282 505 427 124 112 524 512 625 625 41 46 80 89 85 95 17 17 195
226 240 280 117 142 443 580 454 610 2 6 7 13 11 16 11 8 172 258 251 390 149
247 234 402 368 675 117 238 127 265 80 209 -54 -63 -435 -442 -539 -536 -187
-168 -376 -323 -574 -472 -44 -33 -85 -64 -91 -69 -131 -107 -676 -458 -881
-567 -32 -18 -79 -43 -104 -57 -98 -55 -580 -293 -594 -293 -2 0 -37 -15 -78
-34 -40 -19 -149 -64 -243 -101 -93 -36 -179 -70 -190 -75 -19 -8 -256 -91
-355 -124 -175 -57 -643 -186 -765 -210 -11 -3 -63 -14 -115 -25 -52 -11 -111
-23 -130 -26 -19 -3 -42 -8 -50 -10 -8 -2 -31 -7 -50 -10 -19 -3 -48 -8 -65
-12 -16 -3 -39 -7 -50 -9 -11 -1 -33 -5 -50 -8 -77 -14 -231 -36 -350 -51 -27
-4 -61 -8 -75 -10 -14 -2 -56 -7 -95 -10 -38 -3 -81 -8 -95 -10 -14 -3 -65 -7
-115 -11 -49 -4 -106 -8 -125 -9 -300 -25 -1037 -25 -1280 0 -19 2 -75 6 -125
9 -49 4 -106 8 -125 11 -19 2 -62 6 -95 10 -33 3 -71 8 -85 10 -14 2 -50 6
-80 9 -30 4 -66 8 -80 10 -14 3 -75 12 -136 21 -125 18 -149 22 -219 35 -27 5
-66 12 -85 15 -19 3 -78 15 -131 26 -52 11 -106 21 -120 24 -26 5 -85 19 -249
60 -58 14 -112 28 -121 30 -158 36 -676 202 -914 293 -435 166 -981 428 -1290
619 -11 7 -47 28 -80 48 -300 178 -719 473 -1005 708 -74 61 -137 114 -140
117 -3 3 -25 23 -50 44 -337 292 -749 720 -1000 1040 -8 10 -26 33 -40 50
-108 133 -370 498 -370 514 0 5 -9 17 -20 27 -11 10 -20 22 -20 27 0 4 -15 30
-33 56 -36 51 -203 329 -256 427 -140 255 -286 561 -386 805 -25 63 -50 124
-55 135 -27 62 -185 529 -195 575 -2 8 -20 73 -39 143 -20 71 -38 138 -41 150
-2 12 -11 51 -20 87 -20 80 -82 380 -89 435 -4 23 -9 52 -11 65 -7 33 -34 215
-39 265 -19 158 -27 239 -31 295 -3 36 -7 90 -10 120 -15 164 -22 689 -11 875
9 150 17 272 21 305 2 19 7 64 10 100 4 36 8 76 10 90 2 14 6 50 10 80 4 30 8
66 10 80 2 14 7 45 10 70 3 25 10 70 15 100 5 30 12 71 15 90 3 19 10 58 15
85 6 28 12 61 15 75 3 14 7 36 10 50 3 14 7 34 9 45 99 479 292 1070 497 1513
16 35 29 66 29 68 0 15 205 412 288 558 192 340 486 775 697 1031 76 93 190
229 205 246 8 9 47 51 85 94 249 279 570 588 855 824 69 57 136 113 150 124
14 12 81 63 150 115 69 51 132 99 140 106 9 6 38 27 65 46 28 18 52 36 55 39
3 3 12 11 21 16 9 6 74 49 145 96 219 145 442 279 694 417 86 47 401 202 501
248 56 25 120 53 143 64 22 10 79 35 126 54 82 34 83 35 42 33 -24 -1 -44 -3
-45 -3z"/>
<path d="M14139 22006 c-2 -2 -53 -6 -114 -10 -60 -4 -126 -9 -145 -11 -19 -2
-62 -6 -95 -10 -75 -7 -142 -15 -175 -20 -14 -2 -47 -7 -75 -11 -27 -3 -59 -8
-70 -10 -10 -2 -37 -6 -60 -10 -32 -4 -180 -33 -361 -70 -149 -30 -484 -129
-694 -206 -157 -58 -186 -69 -308 -124 -29 -13 -55 -24 -57 -24 -7 0 -249
-121 -340 -170 -113 -61 -119 -64 -125 -70 -3 -3 -21 -14 -40 -24 -121 -66
-485 -322 -603 -425 -109 -94 -155 -136 -262 -241 -417 -406 -729 -861 -965
-1405 -139 -320 -256 -692 -320 -1015 -5 -25 -12 -55 -14 -68 -19 -89 -52
-313 -61 -407 -4 -38 -8 -81 -11 -95 -25 -157 -24 -816 1 -1015 2 -16 7 -58
10 -92 3 -34 7 -70 9 -80 2 -10 7 -45 11 -78 8 -71 49 -301 71 -400 9 -38 18
-80 20 -93 12 -62 81 -313 121 -437 151 -474 370 -942 643 -1375 65 -103 186
-281 217 -320 6 -8 53 -69 104 -135 153 -200 313 -380 518 -585 165 -164 232
-228 355 -335 11 -9 102 -85 136 -112 166 -135 509 -383 528 -383 5 0 17 -9
27 -20 10 -11 22 -20 27 -20 5 0 28 -13 51 -29 23 -15 92 -58 152 -93 614
-364 1285 -633 2048 -823 293 -72 728 -152 982 -180 28 -3 64 -7 80 -10 39 -6
103 -13 190 -20 39 -3 88 -8 110 -10 250 -27 1029 -27 1290 -1 17 2 66 6 110
10 44 4 91 9 105 11 14 2 50 7 80 10 30 3 66 8 80 10 14 2 45 7 70 10 25 3 57
8 73 11 15 2 42 6 60 9 175 29 560 118 727 170 182 57 187 52 -60 53 -246 0
-367 6 -575 27 -61 7 -196 24 -250 32 -22 3 -47 7 -55 8 -14 2 -84 13 -125 21
-11 2 -54 11 -95 19 -41 8 -84 17 -95 19 -11 2 -58 14 -105 26 -103 26 -115
29 -140 34 -35 8 -293 88 -350 108 -340 123 -584 230 -815 358 -33 18 -79 43
-103 56 -303 168 -686 440 -972 693 -80 70 -369 357 -435 431 -168 190 -341
413 -473 613 -93 141 -172 266 -172 272 0 2 -14 28 -31 57 -79 132 -210 407
-290 607 -98 243 -225 669 -254 851 -3 19 -12 71 -20 115 -8 44 -19 118 -25
165 -6 47 -13 99 -15 115 -26 200 -27 800 -1 932 3 12 7 48 11 80 6 56 10 85
21 148 3 17 7 39 9 50 2 20 14 84 22 120 2 11 6 31 9 45 23 120 110 409 172
575 156 415 405 838 705 1195 172 205 535 540 732 676 17 11 62 42 100 69 198
138 568 336 810 433 143 57 487 172 560 186 11 2 58 14 105 26 47 12 96 24
110 26 14 3 32 7 40 9 8 2 29 6 45 9 17 3 84 14 150 25 143 24 168 27 260 36
39 4 81 8 95 11 146 23 786 23 930 0 14 -2 54 -7 90 -10 61 -6 372 -50 415
-60 11 -2 56 -12 100 -21 44 -9 125 -28 180 -41 55 -14 107 -26 115 -28 283
-69 711 -230 1015 -383 186 -93 186 -94 -19 90 -91 82 -103 92 -160 141 -27
22 -66 55 -85 72 -30 26 -139 110 -351 272 -129 98 -439 299 -660 428 -169 98
-574 303 -740 373 -69 29 -143 61 -165 71 -171 76 -587 222 -842 295 -216 63
-586 154 -693 170 -22 4 -227 39 -290 50 -40 8 -330 44 -385 49 -27 3 -84 7
-125 11 -41 3 -97 8 -125 11 -54 6 -810 15 -816 10z"/>
<path d="M967 16258 c-86 -210 -144 -357 -163 -413 -14 -38 -29 -79 -34 -90
-32 -67 -240 -688 -255 -759 -3 -11 -11 -40 -19 -65 -39 -119 -156 -569 -191
-731 -2 -8 -11 -49 -20 -90 -18 -83 -61 -298 -69 -345 -3 -16 -8 -39 -10 -50
-2 -11 -7 -40 -11 -65 -4 -25 -9 -54 -11 -65 -6 -30 -52 -323 -59 -375 -6 -47
-12 -93 -19 -157 -5 -39 -12 -99 -22 -180 -3 -27 -7 -66 -9 -88 -2 -22 -6 -68
-9 -102 -33 -357 -41 -563 -41 -1023 0 -336 7 -610 20 -760 2 -25 6 -85 10
-134 3 -48 8 -105 10 -125 2 -20 7 -63 10 -96 6 -70 15 -159 20 -195 2 -14 6
-50 10 -80 5 -52 41 -317 50 -370 45 -277 107 -601 161 -830 14 -63 30 -131
34 -150 4 -19 24 -98 44 -175 21 -77 39 -147 41 -155 22 -86 146 -508 162
-550 3 -8 30 -87 60 -175 132 -385 287 -777 459 -1157 58 -128 287 -592 352
-713 250 -466 556 -959 815 -1315 74 -101 211 -285 222 -296 5 -6 24 -29 40
-50 65 -84 233 -283 323 -383 295 -328 721 -746 1026 -1006 32 -27 63 -55 70
-61 10 -9 132 -111 176 -147 182 -147 259 -208 403 -315 239 -179 624 -447
729 -507 41 -23 325 -199 350 -216 15 -11 30 -19 33 -19 3 0 23 -11 45 -25
221 -140 791 -430 1175 -600 72 -31 148 -65 170 -75 214 -96 742 -291 1050
-388 314 -100 805 -233 1020 -276 43 -9 54 -11 215 -45 155 -32 185 -38 240
-47 19 -2 46 -7 60 -10 14 -2 39 -7 55 -10 17 -3 41 -7 55 -9 14 -3 45 -7 70
-10 25 -3 52 -8 60 -10 8 -2 38 -7 65 -10 28 -4 57 -8 65 -10 8 -2 42 -7 75
-10 33 -4 67 -8 75 -10 8 -2 47 -7 85 -11 39 -3 78 -8 87 -9 9 -2 48 -6 85
-10 37 -3 83 -8 102 -11 18 -2 63 -6 100 -9 36 -3 98 -8 136 -11 328 -27 1013
-38 1350 -20 228 11 393 22 485 31 25 3 68 7 95 10 102 9 424 46 447 50 12 3
43 7 68 10 41 4 99 13 140 20 42 7 103 17 123 20 12 1 38 5 57 9 306 55 432
79 465 88 22 5 51 12 65 14 68 12 471 110 592 144 40 12 98 28 128 36 67 18
76 21 425 133 394 128 687 240 1135 436 216 94 673 326 985 500 252 140 706
430 985 629 185 131 623 467 655 501 6 6 35 31 65 56 44 35 239 202 286 244
220 198 683 656 850 840 272 299 558 646 756 915 30 41 79 109 110 150 108
147 392 574 468 705 10 17 43 72 74 123 31 51 66 109 78 130 249 435 444 823
628 1252 39 91 75 174 79 185 60 137 227 601 305 844 73 228 183 616 211 751
2 8 17 71 34 140 17 69 32 136 35 150 2 14 13 66 24 115 11 50 23 106 26 125
3 19 12 71 21 114 8 44 18 93 20 110 3 17 7 42 10 56 3 14 7 40 10 58 3 17 7
46 10 62 10 60 14 87 30 200 9 63 18 133 22 155 3 22 6 51 8 65 10 93 17 158
20 180 2 14 6 59 10 100 4 41 8 86 10 100 2 14 7 70 11 125 3 55 7 118 9 140
27 355 27 1288 0 1545 -2 19 -7 73 -10 120 -7 109 -15 198 -20 230 -2 14 -6
54 -10 90 -7 88 -16 170 -20 190 -2 8 -6 43 -10 75 -4 33 -8 71 -11 85 -4 29
-12 83 -19 138 -6 44 -53 326 -60 362 -3 14 -9 50 -15 80 -16 90 -19 103 -30
150 -5 25 -12 56 -14 70 -11 61 -78 354 -102 445 -3 11 -7 31 -10 44 -3 14
-10 32 -15 40 -8 13 -9 12 -5 -4 2 -11 8 -45 12 -75 4 -30 8 -62 10 -70 1 -8
5 -37 8 -65 4 -27 8 -63 11 -80 2 -16 6 -59 10 -95 3 -36 8 -81 10 -100 10
-81 18 -186 32 -420 15 -256 8 -914 -12 -1155 -14 -164 -17 -203 -20 -230 -2
-16 -6 -57 -10 -90 -6 -68 -12 -116 -21 -177 -3 -24 -7 -52 -9 -63 -10 -82
-20 -148 -40 -270 -30 -180 -34 -202 -45 -250 -5 -22 -11 -53 -14 -70 -3 -16
-20 -93 -37 -170 -17 -77 -32 -148 -34 -158 -2 -10 -7 -27 -10 -37 -3 -10 -8
-27 -10 -37 -6 -34 -83 -312 -113 -413 -97 -324 -289 -842 -407 -1095 -12 -27
-33 -72 -45 -100 -128 -290 -432 -847 -619 -1135 -20 -31 -40 -63 -46 -72 -96
-159 -365 -531 -574 -793 -356 -446 -849 -960 -1255 -1308 -27 -23 -54 -47
-60 -52 -6 -6 -56 -48 -111 -94 -55 -46 -112 -94 -128 -107 -39 -34 -417 -323
-447 -343 -14 -8 -27 -18 -30 -21 -19 -22 -528 -362 -700 -467 -143 -88 -341
-203 -440 -256 -41 -22 -100 -54 -130 -72 -72 -41 -514 -259 -655 -323 -214
-97 -483 -208 -705 -292 -47 -18 -112 -42 -145 -55 -161 -61 -680 -227 -860
-275 -69 -18 -431 -112 -445 -115 -8 -2 -58 -13 -110 -25 -52 -12 -104 -23
-115 -25 -35 -8 -119 -25 -143 -30 -13 -2 -31 -6 -40 -9 -9 -3 -33 -7 -52 -10
-19 -3 -80 -14 -135 -25 -55 -11 -118 -22 -140 -25 -23 -4 -50 -8 -62 -10 -11
-3 -37 -7 -57 -10 -20 -3 -53 -9 -73 -12 -45 -7 -42 -7 -203 -28 -119 -16
-149 -20 -222 -30 -18 -3 -64 -8 -103 -12 -38 -3 -77 -7 -85 -9 -8 -2 -51 -6
-95 -10 -44 -3 -96 -8 -115 -10 -33 -4 -123 -11 -265 -20 -232 -16 -406 -20
-810 -20 -253 0 -518 4 -590 8 -163 9 -247 14 -405 22 -219 11 -260 14 -425
30 -97 10 -162 17 -185 20 -35 5 -106 14 -165 20 -27 3 -63 8 -80 12 -16 3
-41 7 -55 8 -21 3 -71 10 -255 41 -30 5 -128 22 -175 31 -22 4 -293 58 -345
69 -74 15 -503 123 -579 145 -38 12 -76 22 -85 24 -63 13 -538 168 -731 238
-406 149 -951 382 -1345 577 -470 232 -850 451 -1327 765 -80 53 -299 205
-308 215 -3 3 -25 19 -50 35 -25 16 -47 32 -50 36 -3 3 -49 38 -104 78 -90 67
-450 354 -521 416 -16 15 -43 38 -60 52 -497 431 -926 873 -1325 1363 -56 69
-109 134 -119 145 -24 30 -243 324 -271 365 -14 19 -28 40 -33 45 -29 35 -221
323 -332 500 -77 122 -227 380 -329 568 -60 111 -265 525 -271 547 -1 3 -8 21
-17 40 -82 184 -111 253 -183 435 -84 211 -180 484 -237 670 -51 169 -158 562
-172 635 -3 14 -20 97 -39 185 -35 164 -67 326 -71 367 -2 13 -6 37 -9 53 -4
17 -9 47 -12 68 -3 20 -7 54 -10 75 -3 20 -9 69 -15 107 -5 39 -12 89 -15 113
-3 23 -7 59 -10 80 -2 20 -7 62 -10 92 -3 30 -7 75 -10 100 -5 42 -12 142 -20
255 -17 247 -22 732 -10 970 11 223 27 440 40 560 3 28 8 66 10 85 4 32 10 90
19 165 5 42 18 126 22 150 3 11 7 38 9 60 3 22 14 92 25 155 66 383 173 825
284 1175 14 43 24 81 22 83 -2 1 -6 -3 -9 -10z"/>
</g>
</svg>
